<?xml version="1.0" encoding="iso-8859-1"?>
<!-- Generator: Adobe Illustrator 18.1.1, SVG Export Plug-In . SVG Version: 6.00 Build 0)  -->
<svg xmlns="http://www.w3.org/2000/svg" xmlns:xlink="http://www.w3.org/1999/xlink" version="1.1" id="Capa_1" x="0px" y="0px" viewBox="0 0 49.867 49.867" style="enable-background:new 0 0 49.867 49.867;" xml:space="preserve" width="512px" height="512px">
<g>
	<g>
		<path d="M34.086,11.125c0.627,2.937,0.636,7.393-2.211,9.088c-0.025-0.006-0.053-0.011-0.077-0.017v9.56    c-0.282,0.043-0.537,0.145-0.755,0.288v-9.993c-0.986-0.145-2.096-0.154-3.097-0.024v10.188c-0.206-0.173-0.466-0.298-0.754-0.365    v-9.823c-2.991,0-7.202,0-10.192,0c-1.001,0-1.548,0.7-1.647,1.469H7.419v1.121H7.57l1.906,6.4h0.146l2.257-6.4h3.662    c0.253,0.492,0.737,0.858,1.459,0.858c2.245,0,5.713,0,7.96,0v6.792c0,0.247,0.026,0.486,0.065,0.725    c-0.018,0.084-0.031,0.172-0.031,0.262v17.15c0,0.807,0.776,1.463,1.732,1.463c0.958,0,1.733-0.656,1.733-1.463V34.611    c0.308,0.068,0.625,0.109,0.955,0.109s0.648-0.041,0.959-0.11v13.731c0,0.808,0.774,1.464,1.73,1.464    c0.958,0,1.732-0.656,1.732-1.464V31.193c0-0.082-0.014-0.16-0.027-0.238c0.035-0.225,0.059-0.453,0.059-0.688v-7.208    c3.996-2.55,4.51-8.326,3.545-12.85C36.948,8.035,33.623,8.957,34.086,11.125z" fill="#FFFFFF"/>
		<path d="M31.798,20.027h-0.755v0.024c0.262,0.039,0.514,0.087,0.755,0.145V20.027z" fill="#FFFFFF"/>
		<circle cx="29.138" cy="15.996" r="3.057" fill="#FFFFFF"/>
		<polygon points="36.045,0.151 36.045,0 34.924,0 34.924,8.62 36.045,8.62 36.045,4.46 42.448,2.204     42.448,2.057   " fill="#FFFFFF"/>
	</g>
</g>
<g>
</g>
<g>
</g>
<g>
</g>
<g>
</g>
<g>
</g>
<g>
</g>
<g>
</g>
<g>
</g>
<g>
</g>
<g>
</g>
<g>
</g>
<g>
</g>
<g>
</g>
<g>
</g>
<g>
</g>
</svg>
